<svg width="395" height="62" viewBox="0 0 395 62" fill="none" xmlns="http://www.w3.org/2000/svg">
<g filter="url(#filter0_i_1_24)">
<g filter="url(#filter1_i_1_24)">
<path d="M7.481 19.05C7.481 18.588 7.376 18.273 7.166 18.105C6.998 17.937 6.599 17.79 5.969 17.664L3.638 17.16V15.9H24.554V17.16L21.845 17.727C21.215 17.853 20.795 18 20.585 18.168C20.417 18.336 20.333 18.651 20.333 19.113V58.11H28.271C30.749 58.11 32.681 57.732 34.067 56.976C35.453 56.22 36.524 55.149 37.28 53.763C38.078 52.377 38.96 50.277 39.926 47.463H41.69V60H3.638V58.74L5.969 58.236C6.599 58.11 6.998 57.963 7.166 57.795C7.376 57.627 7.481 57.312 7.481 56.85V19.05ZM60.21 43.872C60.252 48.534 60.987 52.083 62.415 54.519C63.885 56.955 66.615 58.173 70.605 58.173C72.579 58.173 74.322 57.879 75.834 57.291C77.388 56.703 78.984 55.863 80.622 54.771L81.441 55.968C77.535 59.16 72.369 60.756 65.943 60.756C60.147 60.756 55.569 59.37 52.209 56.598C48.891 53.784 47.232 49.689 47.232 44.313C47.232 39.231 48.933 35.346 52.335 32.658C55.737 29.97 60.504 28.626 66.636 28.626C70.122 28.626 73.062 29.172 75.456 30.264C77.85 31.356 79.614 32.826 80.748 34.674C81.924 36.48 82.512 38.496 82.512 40.722C82.512 41.856 82.407 42.906 82.197 43.872H60.21ZM66.258 30.138C63.948 30.138 62.373 31.104 61.533 33.036C60.693 34.968 60.252 38.034 60.21 42.234H70.794V37.509C70.794 34.947 70.479 33.078 69.849 31.902C69.261 30.726 68.064 30.138 66.258 30.138ZM111.883 60C110.707 60 109.867 59.769 109.363 59.307C108.901 58.803 108.67 57.984 108.67 56.85V56.535C105.856 59.265 101.845 60.63 96.6368 60.63C93.9068 60.63 91.7648 60.021 90.2108 58.803C88.6988 57.543 87.9428 55.611 87.9428 53.007C87.9428 50.403 88.6988 48.366 90.2108 46.896C91.7648 45.426 94.0118 44.376 96.9518 43.746C99.8918 43.116 103.798 42.738 108.67 42.612V38.013C108.67 35.661 108.208 33.981 107.284 32.973C106.36 31.923 104.743 31.398 102.433 31.398C100.501 31.398 98.6948 31.671 97.0148 32.217C95.3768 32.721 93.6968 33.498 91.9748 34.548L91.1558 33.351C93.1718 31.923 95.5868 30.789 98.4008 29.949C101.257 29.067 104.449 28.626 107.977 28.626C112.723 28.626 116.104 29.571 118.12 31.461C120.136 33.309 121.144 35.997 121.144 39.525V56.976C121.144 57.438 121.228 57.753 121.396 57.921C121.606 58.089 122.026 58.236 122.656 58.362L124.861 58.866V60H111.883ZM103.693 56.661C105.499 56.661 107.158 55.947 108.67 54.519V44.313C106.318 44.481 104.533 44.859 103.315 45.447C102.097 45.993 101.257 46.791 100.795 47.841C100.375 48.891 100.165 50.319 100.165 52.125C100.165 53.721 100.438 54.876 100.984 55.59C101.572 56.304 102.475 56.661 103.693 56.661ZM144.489 30.705C143.523 30.915 143.04 31.314 143.04 31.902C143.04 32.154 143.145 32.49 143.355 32.91L150.663 47.589L157.53 31.587C157.656 31.335 157.719 31.125 157.719 30.957C157.719 30.705 157.446 30.558 156.9 30.516L155.262 30.327V29.382H162.507V30.327L160.869 30.579C160.365 30.663 160.008 30.768 159.798 30.894C159.588 31.02 159.378 31.314 159.168 31.776L146.379 61.134H145.245L129.999 32.028C129.789 31.65 129.537 31.377 129.243 31.209C128.991 31.041 128.655 30.915 128.235 30.831L126.345 30.327V29.382H146.127V30.327L144.489 30.705ZM178.889 43.872C178.931 48.534 179.666 52.083 181.094 54.519C182.564 56.955 185.294 58.173 189.284 58.173C191.258 58.173 193.001 57.879 194.513 57.291C196.067 56.703 197.663 55.863 199.301 54.771L200.12 55.968C196.214 59.16 191.048 60.756 184.622 60.756C178.826 60.756 174.248 59.37 170.888 56.598C167.57 53.784 165.911 49.689 165.911 44.313C165.911 39.231 167.612 35.346 171.014 32.658C174.416 29.97 179.183 28.626 185.315 28.626C188.801 28.626 191.741 29.172 194.135 30.264C196.529 31.356 198.293 32.826 199.427 34.674C200.603 36.48 201.191 38.496 201.191 40.722C201.191 41.856 201.086 42.906 200.876 43.872H178.889ZM184.937 30.138C182.627 30.138 181.052 31.104 180.212 33.036C179.372 34.968 178.931 38.034 178.889 42.234H189.473V37.509C189.473 34.947 189.158 33.078 188.528 31.902C187.94 30.726 186.743 30.138 184.937 30.138ZM247.824 29.193C247.824 32.595 247.005 35.262 245.367 37.194C243.771 39.084 241.272 40.449 237.87 41.289C234.468 42.087 229.911 42.486 224.199 42.486H222.561V56.787C222.561 57.249 222.645 57.564 222.813 57.732C223.023 57.9 223.443 58.047 224.073 58.173L226.782 58.74V60H205.866V58.74L208.197 58.236C208.827 58.11 209.226 57.963 209.394 57.795C209.604 57.627 209.709 57.312 209.709 56.85V19.05C209.709 18.588 209.604 18.273 209.394 18.105C209.226 17.937 208.827 17.79 208.197 17.664L205.866 17.16V15.9H224.199C229.911 15.9 234.468 16.32 237.87 17.16C241.272 17.958 243.771 19.323 245.367 21.255C247.005 23.145 247.824 25.791 247.824 29.193ZM222.561 40.596H224.766C227.244 40.596 229.176 40.218 230.562 39.462C231.99 38.706 233.019 37.509 233.649 35.871C234.279 34.233 234.594 32.007 234.594 29.193C234.594 26.379 234.279 24.153 233.649 22.515C233.019 20.877 231.99 19.68 230.562 18.924C229.176 18.168 227.244 17.79 224.766 17.79H222.561V40.596ZM280.031 33.162C280.031 32.7 279.926 32.385 279.716 32.217C279.548 32.049 279.149 31.902 278.519 31.776L276.314 31.272V30.138L291.56 28.248H292.631V56.976C292.631 57.438 292.715 57.753 292.883 57.921C293.093 58.089 293.513 58.236 294.143 58.362L296.348 58.866V60H283.559C282.341 60 281.459 59.748 280.913 59.244C280.409 58.698 280.157 57.858 280.157 56.724V56.031C278.645 57.333 276.734 58.446 274.424 59.37C272.114 60.294 269.552 60.756 266.738 60.756C262.832 60.756 260.039 59.937 258.359 58.299C256.679 56.661 255.839 54.204 255.839 50.928V33.162C255.839 32.7 255.734 32.385 255.524 32.217C255.356 32.049 254.957 31.902 254.327 31.776L252.122 31.272V30.138L267.368 28.248H268.439V52.062C268.439 53.952 268.733 55.296 269.321 56.094C269.951 56.892 270.98 57.291 272.408 57.291C274.928 57.291 277.469 56.241 280.031 54.141V33.162ZM299.378 58.866L301.583 58.362C302.213 58.236 302.612 58.089 302.78 57.921C302.99 57.753 303.095 57.438 303.095 56.976V18.924C303.095 18.462 302.99 18.147 302.78 17.979C302.612 17.811 302.213 17.664 301.583 17.538L299.378 17.034V15.9L314.498 14.01H315.695V56.976C315.695 57.438 315.779 57.753 315.947 57.921C316.157 58.089 316.577 58.236 317.207 58.362L319.412 58.866V60H299.378V58.866ZM337.822 59.244C339.796 59.244 341.245 58.95 342.169 58.362C343.135 57.774 343.618 56.745 343.618 55.275C343.618 54.267 343.366 53.448 342.862 52.818C342.358 52.188 341.56 51.621 340.468 51.117C339.376 50.613 337.633 49.92 335.239 49.038C331.165 47.568 328.267 46.056 326.545 44.502C324.823 42.906 323.962 40.722 323.962 37.95C323.962 34.8 325.138 32.469 327.49 30.957C329.842 29.403 333.412 28.626 338.2 28.626C340.636 28.626 343.03 28.878 345.382 29.382C347.734 29.844 349.561 30.39 350.863 31.02L350.107 38.58H349.036C347.902 35.766 346.537 33.645 344.941 32.217C343.345 30.747 341.035 30.012 338.011 30.012C336.079 30.012 334.588 30.285 333.538 30.831C332.488 31.335 331.963 32.28 331.963 33.666C331.963 34.632 332.194 35.409 332.656 35.997C333.16 36.585 333.916 37.131 334.924 37.635C335.974 38.139 337.696 38.874 340.09 39.84C343.534 41.226 346.138 42.423 347.902 43.431C349.666 44.439 350.968 45.594 351.808 46.896C352.648 48.198 353.068 49.836 353.068 51.81C353.068 54.96 351.85 57.249 349.414 58.677C347.02 60.063 343.408 60.756 338.578 60.756C336.016 60.756 333.328 60.504 330.514 60C327.742 59.538 325.663 58.992 324.277 58.362L325.159 49.794H326.23C326.986 53.112 328.33 55.527 330.262 57.039C332.194 58.509 334.714 59.244 337.822 59.244ZM372.072 43.872C372.114 48.534 372.849 52.083 374.277 54.519C375.747 56.955 378.477 58.173 382.467 58.173C384.441 58.173 386.184 57.879 387.696 57.291C389.25 56.703 390.846 55.863 392.484 54.771L393.303 55.968C389.397 59.16 384.231 60.756 377.805 60.756C372.009 60.756 367.431 59.37 364.071 56.598C360.753 53.784 359.094 49.689 359.094 44.313C359.094 39.231 360.795 35.346 364.197 32.658C367.599 29.97 372.366 28.626 378.498 28.626C381.984 28.626 384.924 29.172 387.318 30.264C389.712 31.356 391.476 32.826 392.61 34.674C393.786 36.48 394.374 38.496 394.374 40.722C394.374 41.856 394.269 42.906 394.059 43.872H372.072ZM378.12 30.138C375.81 30.138 374.235 31.104 373.395 33.036C372.555 34.968 372.114 38.034 372.072 42.234H382.656V37.509C382.656 34.947 382.341 33.078 381.711 31.902C381.123 30.726 379.926 30.138 378.12 30.138Z" fill="#EDEDED"/>
</g>
<path d="M7.166 18.105L6.81245 18.4586L6.83203 18.4781L6.85365 18.4954L7.166 18.105ZM5.969 17.664L5.86332 18.1528L5.87094 18.1543L5.969 17.664ZM3.638 17.16H3.138V17.5634L3.53233 17.6487L3.638 17.16ZM3.638 15.9V15.4H3.138V15.9H3.638ZM24.554 15.9H25.054V15.4H24.554V15.9ZM24.554 17.16L24.6564 17.6494L25.054 17.5662V17.16H24.554ZM21.845 17.727L21.9431 18.2173L21.9474 18.2164L21.845 17.727ZM20.585 18.168L20.2727 17.7776L20.251 17.7949L20.2314 17.8144L20.585 18.168ZM20.333 58.11H19.833V58.61H20.333V58.11ZM34.067 56.976L33.8276 56.5371L34.067 56.976ZM37.28 53.763L36.8466 53.5135L36.8411 53.5236L37.28 53.763ZM39.926 47.463V46.963H39.569L39.4531 47.3007L39.926 47.463ZM41.69 47.463H42.19V46.963H41.69V47.463ZM41.69 60V60.5H42.19V60H41.69ZM3.638 60H3.138V60.5H3.638V60ZM3.638 58.74L3.53233 58.2513L3.138 58.3366V58.74H3.638ZM5.969 58.236L5.87093 57.7457L5.86333 57.7473L5.969 58.236ZM7.166 57.795L6.85365 57.4046L6.83203 57.4219L6.81245 57.4414L7.166 57.795ZM7.981 19.05C7.981 18.5415 7.87013 18.028 7.47835 17.7146L6.85365 18.4954C6.88187 18.518 6.981 18.6345 6.981 19.05H7.981ZM7.51955 17.7514C7.35868 17.5906 7.13563 17.4814 6.9136 17.3996C6.68082 17.3138 6.39604 17.2395 6.06706 17.1737L5.87094 18.1543C6.17196 18.2145 6.40168 18.2767 6.5679 18.3379C6.65049 18.3683 6.71112 18.3963 6.75387 18.42C6.79783 18.4444 6.81279 18.4589 6.81245 18.4586L7.51955 17.7514ZM6.07467 17.1753L3.74367 16.6713L3.53233 17.6487L5.86333 18.1527L6.07467 17.1753ZM4.138 17.16V15.9H3.138V17.16H4.138ZM3.638 16.4H24.554V15.4H3.638V16.4ZM24.054 15.9V17.16H25.054V15.9H24.054ZM24.4516 16.6706L21.7426 17.2376L21.9474 18.2164L24.6564 17.6494L24.4516 16.6706ZM21.7469 17.2367C21.4182 17.3025 21.1315 17.3761 20.8923 17.4598C20.6592 17.5414 20.4412 17.6427 20.2727 17.7776L20.8973 18.5584C20.9388 18.5253 21.0358 18.4691 21.2227 18.4037C21.4035 18.3404 21.6418 18.2775 21.9431 18.2173L21.7469 17.2367ZM20.2314 17.8144C19.9132 18.1327 19.833 18.6286 19.833 19.113H20.833C20.833 18.6734 20.9208 18.5393 20.9386 18.5216L20.2314 17.8144ZM19.833 19.113V58.11H20.833V19.113H19.833ZM20.333 58.61H28.271V57.61H20.333V58.61ZM28.271 58.61C30.7895 58.61 32.8167 58.2275 34.3064 57.4149L33.8276 56.5371C32.5453 57.2365 30.7085 57.61 28.271 57.61V58.61ZM34.3064 57.4149C35.7767 56.613 36.917 55.4727 37.7189 54.0024L36.8411 53.5236C36.131 54.8253 35.1293 55.827 33.8276 56.5371L34.3064 57.4149ZM37.7133 54.0125C38.5355 52.5845 39.4298 50.4485 40.3989 47.6253L39.4531 47.3007C38.4902 50.1055 37.6205 52.1695 36.8467 53.5135L37.7133 54.0125ZM39.926 47.963H41.69V46.963H39.926V47.963ZM41.19 47.463V60H42.19V47.463H41.19ZM41.69 59.5H3.638V60.5H41.69V59.5ZM4.138 60V58.74H3.138V60H4.138ZM3.74367 59.2287L6.07467 58.7247L5.86333 57.7473L3.53233 58.2513L3.74367 59.2287ZM6.06706 58.7263C6.39604 58.6605 6.68082 58.5862 6.9136 58.5004C7.13563 58.4186 7.35868 58.3094 7.51955 58.1486L6.81245 57.4414C6.81279 57.4411 6.79783 57.4556 6.75387 57.48C6.71112 57.5037 6.65049 57.5316 6.5679 57.5621C6.40168 57.6233 6.17196 57.6855 5.87094 57.7457L6.06706 58.7263ZM7.47835 58.1854C7.87013 57.872 7.981 57.3585 7.981 56.85H6.981C6.981 57.2655 6.88187 57.382 6.85365 57.4046L7.47835 58.1854ZM7.981 56.85V19.05H6.981V56.85H7.981ZM60.21 43.872V43.372H59.7055L59.7101 43.8765L60.21 43.872ZM62.415 54.519L61.9836 54.7719L61.9869 54.7773L62.415 54.519ZM75.834 57.291L75.6571 56.8233L75.6528 56.825L75.834 57.291ZM80.622 54.771L81.0347 54.4887L80.7557 54.0809L80.3447 54.355L80.622 54.771ZM81.441 55.968L81.7574 56.3552L82.113 56.0646L81.8537 55.6857L81.441 55.968ZM52.209 56.598L51.8856 56.9794L51.8908 56.9837L52.209 56.598ZM52.335 32.658L52.645 33.0503L52.335 32.658ZM75.456 30.264L75.6635 29.8091L75.456 30.264ZM80.748 34.674L80.3217 34.9356L80.329 34.9468L80.748 34.674ZM82.197 43.872V44.372H82.6L82.6856 43.9782L82.197 43.872ZM60.21 42.234L59.7101 42.229L59.705 42.734H60.21V42.234ZM70.794 42.234V42.734H71.294V42.234H70.794ZM69.849 31.902L69.4016 32.1257L69.4083 32.1381L69.849 31.902ZM59.7101 43.8765C59.7524 48.5752 60.4915 52.2264 61.9837 54.7719L62.8464 54.2661C61.4826 51.9396 60.7517 48.4928 60.71 43.8675L59.7101 43.8765ZM61.9869 54.7773C63.5816 57.4199 66.5179 58.673 70.605 58.673V57.673C66.7121 57.673 64.1885 56.4901 62.8431 54.2607L61.9869 54.7773ZM70.605 58.673C72.628 58.673 74.4344 58.3718 76.0153 57.757L75.6528 56.825C74.2096 57.3862 72.5301 57.673 70.605 57.673V58.673ZM76.011 57.7586C77.6061 57.1551 79.2356 56.2962 80.8994 55.187L80.3447 54.355C78.7325 55.4298 77.17 56.2509 75.6571 56.8234L76.011 57.7586ZM80.2094 55.0533L81.0284 56.2503L81.8537 55.6857L81.0347 54.4887L80.2094 55.0533ZM81.1246 55.5808C77.33 58.6818 72.2859 60.256 65.943 60.256V61.256C72.4521 61.256 77.74 59.6382 81.7574 56.3552L81.1246 55.5808ZM65.943 60.256C60.2245 60.256 55.7718 58.8891 52.5272 56.2123L51.8908 56.9837C55.3663 59.8509 60.0695 61.256 65.943 61.256V60.256ZM52.5324 56.2167C49.3523 53.5196 47.732 49.5798 47.732 44.313H46.732C46.732 49.7982 48.4297 54.0484 51.8856 56.9793L52.5324 56.2167ZM47.732 44.313C47.732 39.3544 49.3844 35.6266 52.645 33.0503L52.0251 32.2657C48.4816 35.0654 46.732 39.1076 46.732 44.313H47.732ZM52.645 33.0503C55.9286 30.4559 60.5709 29.126 66.636 29.126V28.126C60.4371 28.126 55.5454 29.4841 52.0251 32.2657L52.645 33.0503ZM66.636 29.126C70.0726 29.126 72.9372 29.6646 75.2485 30.7189L75.6635 29.8091C73.1869 28.6794 70.1715 28.126 66.636 28.126V29.126ZM75.2485 30.7189C77.5716 31.7786 79.2501 33.1889 80.3219 34.9355L81.1742 34.4125C79.978 32.4631 78.1285 30.9334 75.6635 29.8091L75.2485 30.7189ZM80.329 34.9468C81.4504 36.6689 82.012 38.5895 82.012 40.722H83.012C83.012 38.4025 82.3977 36.2911 81.167 34.4012L80.329 34.9468ZM82.012 40.722C82.012 41.8254 81.9098 42.8393 81.7084 43.7658L82.6856 43.9782C82.9042 42.9727 83.012 41.8866 83.012 40.722H82.012ZM82.197 43.372H60.21V44.372H82.197V43.372ZM66.258 29.638C65.0337 29.638 63.9665 29.8943 63.0829 30.4363C62.1961 30.9802 61.5294 31.7903 61.0745 32.8366L61.9916 33.2354C62.3766 32.3497 62.9175 31.7108 63.6057 31.2887C64.297 30.8647 65.1724 30.638 66.258 30.638V29.638ZM61.0745 32.8366C60.1926 34.8649 59.7522 38.0153 59.7101 42.229L60.71 42.239C60.7519 38.0527 61.1934 35.071 61.9916 33.2354L61.0745 32.8366ZM60.21 42.734H70.794V41.734H60.21V42.734ZM71.294 42.234V37.509H70.294V42.234H71.294ZM71.294 37.509C71.294 34.9273 70.9802 32.9548 70.2898 31.6659L69.4083 32.1381C69.9778 33.2012 70.294 34.9667 70.294 37.509H71.294ZM70.2962 31.6784C69.5923 30.2705 68.1716 29.638 66.258 29.638V30.638C67.9565 30.638 68.9298 31.1815 69.4018 32.1256L70.2962 31.6784ZM109.363 59.307L108.994 59.6449L109.009 59.6609L109.025 59.6756L109.363 59.307ZM108.67 56.535H109.17V55.3533L108.322 56.1761L108.67 56.535ZM90.2108 58.803L89.8907 59.1871L89.8965 59.1919L89.9024 59.1965L90.2108 58.803ZM90.2108 46.896L89.8672 46.5327L89.8623 46.5375L90.2108 46.896ZM96.9518 43.746L96.8471 43.2571L96.9518 43.746ZM108.67 42.612L108.683 43.1118L109.17 43.0992V42.612H108.67ZM107.284 32.973L106.908 33.3034L106.915 33.3109L107.284 32.973ZM97.0148 32.217L97.1619 32.6949L97.1694 32.6925L97.0148 32.217ZM91.9748 34.548L91.5622 34.8303L91.8301 35.2219L92.2351 34.9749L91.9748 34.548ZM91.1558 33.351L90.8668 32.943L90.4654 33.2273L90.7432 33.6333L91.1558 33.351ZM98.4008 29.949L98.5439 30.4281L98.5484 30.4267L98.4008 29.949ZM118.12 31.461L117.778 31.8258L117.782 31.8296L118.12 31.461ZM121.396 57.921L121.042 58.2746L121.062 58.2941L121.083 58.3114L121.396 57.921ZM122.656 58.362L122.767 57.8744L122.754 57.8717L122.656 58.362ZM124.861 58.866H125.361V58.4674L124.972 58.3786L124.861 58.866ZM124.861 60V60.5H125.361V60H124.861ZM108.67 54.519L109.013 54.8825L109.17 54.7345V54.519H108.67ZM108.67 44.313H109.17V43.776L108.634 43.8143L108.67 44.313ZM103.315 45.447L103.519 45.9033L103.526 45.9004L103.532 45.8973L103.315 45.447ZM100.795 47.841L100.337 47.6396L100.334 47.6474L100.331 47.6553L100.795 47.841ZM100.984 55.59L100.587 55.8937L100.592 55.9009L100.598 55.9079L100.984 55.59ZM111.883 59.5C110.749 59.5 110.066 59.2729 109.701 58.9384L109.025 59.6756C109.668 60.2651 110.665 60.5 111.883 60.5V59.5ZM109.731 58.9691C109.395 58.6017 109.17 57.936 109.17 56.85H108.17C108.17 58.032 108.407 59.0043 108.994 59.6449L109.731 58.9691ZM109.17 56.85V56.535H108.17V56.85H109.17ZM108.322 56.1761C105.628 58.789 101.759 60.13 96.6368 60.13V61.13C101.931 61.13 106.083 59.741 109.018 56.8939L108.322 56.1761ZM96.6368 60.13C93.9765 60.13 91.957 59.5363 90.5193 58.4095L89.9024 59.1965C91.5727 60.5057 93.8372 61.13 96.6368 61.13V60.13ZM90.5309 58.4189C89.1671 57.2824 88.4428 55.5138 88.4428 53.007H87.4428C87.4428 55.7082 88.2305 57.8036 89.8907 59.1871L90.5309 58.4189ZM88.4428 53.007C88.4428 50.5043 89.166 48.6092 90.5594 47.2545L89.8623 46.5375C88.2317 48.1228 87.4428 50.3017 87.4428 53.007H88.4428ZM90.5544 47.2592C92.0201 45.8728 94.1716 44.8531 97.0566 44.2349L96.8471 43.2571C93.8521 43.8989 91.5096 44.9792 89.8672 46.5328L90.5544 47.2592ZM97.0566 44.2349C99.9537 43.6141 103.825 43.2375 108.683 43.1118L108.657 42.1122C103.77 42.2385 99.83 42.6179 96.8471 43.2571L97.0566 44.2349ZM109.17 42.612V38.013H108.17V42.612H109.17ZM109.17 38.013C109.17 35.6188 108.704 33.7822 107.652 32.6351L106.915 33.3109C107.712 34.1798 108.17 35.7032 108.17 38.013H109.17ZM107.659 32.6427C106.593 31.4316 104.796 30.898 102.433 30.898V31.898C104.69 31.898 106.126 32.4144 106.908 33.3033L107.659 32.6427ZM102.433 30.898C100.453 30.898 98.5946 31.1778 96.8603 31.7415L97.1694 32.6925C98.795 32.1642 100.548 31.898 102.433 31.898V30.898ZM96.8678 31.7391C95.1838 32.2573 93.4659 33.0532 91.7145 34.1211L92.2351 34.9749C93.9277 33.9428 95.5699 33.1847 97.1619 32.6949L96.8678 31.7391ZM92.3875 34.2657L91.5685 33.0687L90.7432 33.6333L91.5622 34.8303L92.3875 34.2657ZM91.4448 33.759C93.4089 32.3678 95.7725 31.2554 98.5438 30.4281L98.2578 29.4699C95.4012 30.3226 92.9348 31.4782 90.8668 32.943L91.4448 33.759ZM98.5484 30.4267C101.349 29.5619 104.49 29.126 107.977 29.126V28.126C104.408 28.126 101.165 28.5721 98.2533 29.4713L98.5484 30.4267ZM107.977 29.126C112.68 29.126 115.902 30.0669 117.778 31.8258L118.462 31.0962C116.306 29.0751 112.766 28.126 107.977 28.126V29.126ZM117.782 31.8296C119.667 33.5572 120.644 36.0941 120.644 39.525H121.644C121.644 35.8999 120.605 33.0608 118.458 31.0924L117.782 31.8296ZM120.644 39.525V56.976H121.644V39.525H120.644ZM120.644 56.976C120.644 57.4604 120.724 57.9563 121.042 58.2746L121.749 57.5674C121.732 57.5497 121.644 57.4156 121.644 56.976H120.644ZM121.083 58.3114C121.252 58.4463 121.47 58.5476 121.703 58.6292C121.942 58.7129 122.229 58.7865 122.558 58.8523L122.754 57.8717C122.453 57.8115 122.214 57.7486 122.034 57.6853C121.847 57.6199 121.75 57.5637 121.708 57.5306L121.083 58.3114ZM122.544 58.8494L124.749 59.3534L124.972 58.3786L122.767 57.8746L122.544 58.8494ZM124.361 58.866V60H125.361V58.866H124.361ZM124.861 59.5H111.883V60.5H124.861V59.5ZM103.693 57.161C105.646 57.161 107.423 56.3839 109.013 54.8825L108.327 54.1555C106.892 55.5101 105.352 56.161 103.693 56.161V57.161ZM109.17 54.519V44.313H108.17V54.519H109.17ZM108.634 43.8143C106.259 43.9839 104.4 44.368 103.097 44.9967L103.532 45.8973C104.666 45.35 106.377 44.9781 108.705 44.8117L108.634 43.8143ZM103.11 44.9907C101.799 45.5786 100.857 46.4579 100.337 47.6396L101.252 48.0424C101.657 47.1241 102.395 46.4074 103.519 45.9033L103.11 44.9907ZM100.331 47.6553C99.8771 48.789 99.6648 50.2889 99.6648 52.125H100.665C100.665 50.3491 100.873 48.993 101.259 48.0267L100.331 47.6553ZM99.6648 52.125C99.6648 53.7553 99.9393 55.0472 100.587 55.8937L101.381 55.2863C100.936 54.7048 100.665 53.6867 100.665 52.125H99.6648ZM100.598 55.9079C101.309 56.7713 102.376 57.161 103.693 57.161V56.161C102.574 56.161 101.835 55.8367 101.37 55.2721L100.598 55.9079ZM144.489 30.705L144.595 31.1936L144.601 31.1922L144.489 30.705ZM143.355 32.91L143.802 32.6872L143.802 32.6864L143.355 32.91ZM150.663 47.589L150.215 47.8118L150.696 48.7785L151.122 47.7862L150.663 47.589ZM157.53 31.587L157.083 31.3634L157.076 31.3764L157.07 31.3898L157.53 31.587ZM156.9 30.516L156.842 31.0127L156.852 31.0138L156.861 31.0145L156.9 30.516ZM155.262 30.327H154.762V30.7726L155.204 30.8237L155.262 30.327ZM155.262 29.382V28.882H154.762V29.382H155.262ZM162.507 29.382H163.007V28.882H162.507V29.382ZM162.507 30.327L162.583 30.8212L163.007 30.756V30.327H162.507ZM160.869 30.579L160.793 30.0848L160.787 30.0858L160.869 30.579ZM159.798 30.894L160.055 31.3227V31.3227L159.798 30.894ZM159.168 31.776L158.713 31.5691L158.709 31.5763L159.168 31.776ZM146.379 61.134V61.634H146.706L146.837 61.3337L146.379 61.134ZM145.245 61.134L144.802 61.366L144.942 61.634H145.245V61.134ZM129.999 32.028L130.442 31.7959L130.436 31.7852L129.999 32.028ZM129.243 31.209L128.965 31.625L128.98 31.6346L128.995 31.6431L129.243 31.209ZM128.235 30.831L128.106 31.3141L128.121 31.3182L128.137 31.3213L128.235 30.831ZM126.345 30.327H125.845V30.7111L126.216 30.8101L126.345 30.327ZM126.345 29.382V28.882H125.845V29.382H126.345ZM146.127 29.382H146.627V28.882H146.127V29.382ZM146.127 30.327L146.239 30.8142L146.627 30.7248V30.327H146.127ZM144.383 30.2164C143.862 30.3295 143.412 30.5049 143.084 30.7763C142.736 31.0636 142.54 31.448 142.54 31.902H143.54C143.54 31.768 143.585 31.6589 143.72 31.5472C143.875 31.4196 144.149 31.2904 144.595 31.1936L144.383 30.2164ZM142.54 31.902C142.54 32.2729 142.688 32.6942 142.908 33.1336L143.802 32.6864C143.602 32.2858 143.54 32.0351 143.54 31.902H142.54ZM142.907 33.1328L150.215 47.8118L151.11 47.3662L143.802 32.6872L142.907 33.1328ZM151.122 47.7862L157.989 31.7842L157.07 31.3898L150.203 47.3918L151.122 47.7862ZM157.977 31.8106C158.117 31.5303 158.219 31.2383 158.219 30.957H157.219C157.219 31.0117 157.194 31.1397 157.083 31.3634L157.977 31.8106ZM158.219 30.957C158.219 30.6017 158.005 30.3544 157.751 30.2175C157.523 30.0946 157.235 30.0403 156.938 30.0175L156.861 31.0145C156.98 31.0236 157.074 31.0378 157.146 31.0544C157.219 31.0713 157.259 31.0884 157.277 31.098C157.294 31.1073 157.277 31.102 157.255 31.07C157.23 31.0331 157.219 30.9902 157.219 30.957H158.219ZM156.957 30.0193L155.319 29.8303L155.204 30.8237L156.842 31.0127L156.957 30.0193ZM155.762 30.327V29.382H154.762V30.327H155.762ZM155.262 29.882H162.507V28.882H155.262V29.882ZM162.007 29.382V30.327H163.007V29.382H162.007ZM162.431 29.8328L160.793 30.0848L160.945 31.0732L162.583 30.8212L162.431 29.8328ZM160.787 30.0858C160.273 30.1714 159.836 30.2878 159.541 30.4653L160.055 31.3227C160.179 31.2482 160.456 31.1546 160.951 31.0722L160.787 30.0858ZM159.541 30.4653C159.19 30.6755 158.928 31.0954 158.713 31.5691L159.623 31.9829C159.828 31.5326 159.985 31.3645 160.055 31.3227L159.541 30.4653ZM158.709 31.5763L145.92 60.9343L146.837 61.3337L159.626 31.9757L158.709 31.5763ZM146.379 60.634H145.245V61.634H146.379V60.634ZM145.688 60.902L130.442 31.796L129.556 32.26L144.802 61.366L145.688 60.902ZM130.436 31.7852C130.194 31.3491 129.883 30.9991 129.491 30.7749L128.995 31.6431C129.19 31.7549 129.384 31.9509 129.562 32.2708L130.436 31.7852ZM129.52 30.793C129.196 30.5771 128.792 30.4326 128.333 30.3407L128.137 31.3213C128.517 31.3974 128.785 31.5049 128.965 31.625L129.52 30.793ZM128.364 30.3479L126.474 29.8439L126.216 30.8101L128.106 31.3141L128.364 30.3479ZM126.845 30.327V29.382H125.845V30.327H126.845ZM126.345 29.882H146.127V28.882H126.345V29.882ZM145.627 29.382V30.327H146.627V29.382H145.627ZM146.014 29.8398L144.376 30.2178L144.601 31.1922L146.239 30.8142L146.014 29.8398ZM178.889 43.872V43.372H178.384L178.389 43.8765L178.889 43.872ZM181.094 54.519L180.662 54.7719L180.666 54.7773L181.094 54.519ZM194.513 57.291L194.336 56.8233L194.332 56.825L194.513 57.291ZM199.301 54.771L199.713 54.4887L199.434 54.0809L199.023 54.355L199.301 54.771ZM200.12 55.968L200.436 56.3552L200.792 56.0646L200.532 55.6857L200.12 55.968ZM170.888 56.598L170.564 56.9794L170.57 56.9837L170.888 56.598ZM171.014 32.658L171.324 33.0503L171.014 32.658ZM194.135 30.264L194.342 29.8091L194.135 30.264ZM199.427 34.674L199 34.9356L199.008 34.9468L199.427 34.674ZM200.876 43.872V44.372H201.279L201.364 43.9782L200.876 43.872ZM178.889 42.234L178.389 42.229L178.384 42.734H178.889V42.234ZM189.473 42.234V42.734H189.973V42.234H189.473ZM188.528 31.902L188.08 32.1257L188.087 32.1381L188.528 31.902ZM178.389 43.8765C178.431 48.5752 179.17 52.2264 180.662 54.7719L181.525 54.2661C180.161 51.9396 179.43 48.4928 179.389 43.8675L178.389 43.8765ZM180.666 54.7773C182.26 57.4199 185.197 58.673 189.284 58.673V57.673C185.391 57.673 182.867 56.4901 181.522 54.2607L180.666 54.7773ZM189.284 58.673C191.307 58.673 193.113 58.3718 194.694 57.757L194.332 56.825C192.888 57.3862 191.209 57.673 189.284 57.673V58.673ZM194.69 57.7586C196.285 57.1551 197.914 56.2962 199.578 55.187L199.023 54.355C197.411 55.4298 195.849 56.2509 194.336 56.8234L194.69 57.7586ZM198.888 55.0533L199.707 56.2503L200.532 55.6857L199.713 54.4887L198.888 55.0533ZM199.803 55.5808C196.009 58.6818 190.965 60.256 184.622 60.256V61.256C191.131 61.256 196.419 59.6382 200.436 56.3552L199.803 55.5808ZM184.622 60.256C178.903 60.256 174.451 58.8891 171.206 56.2123L170.57 56.9837C174.045 59.8509 178.748 61.256 184.622 61.256V60.256ZM171.211 56.2167C168.031 53.5196 166.411 49.5798 166.411 44.313H165.411C165.411 49.7982 167.108 54.0484 170.564 56.9793L171.211 56.2167ZM166.411 44.313C166.411 39.3544 168.063 35.6266 171.324 33.0503L170.704 32.2657C167.16 35.0654 165.411 39.1076 165.411 44.313H166.411ZM171.324 33.0503C174.607 30.4559 179.25 29.126 185.315 29.126V28.126C179.116 28.126 174.224 29.4841 170.704 32.2657L171.324 33.0503ZM185.315 29.126C188.751 29.126 191.616 29.6646 193.927 30.7189L194.342 29.8091C191.866 28.6794 188.85 28.126 185.315 28.126V29.126ZM193.927 30.7189C196.25 31.7786 197.929 33.1889 199.001 34.9355L199.853 34.4125C198.657 32.4631 196.807 30.9334 194.342 29.8091L193.927 30.7189ZM199.008 34.9468C200.129 36.6689 200.691 38.5895 200.691 40.722H201.691C201.691 38.4025 201.076 36.2911 199.846 34.4012L199.008 34.9468ZM200.691 40.722C200.691 41.8254 200.589 42.8393 200.387 43.7658L201.364 43.9782C201.583 42.9727 201.691 41.8866 201.691 40.722H200.691ZM200.876 43.372H178.889V44.372H200.876V43.372ZM184.937 29.638C183.712 29.638 182.645 29.8943 181.762 30.4363C180.875 30.9802 180.208 31.7903 179.753 32.8366L180.67 33.2354C181.055 32.3497 181.596 31.7108 182.284 31.2887C182.976 30.8647 183.851 30.638 184.937 30.638V29.638ZM179.753 32.8366C178.871 34.8649 178.431 38.0153 178.389 42.229L179.389 42.239C179.431 38.0527 179.872 35.071 180.67 33.2354L179.753 32.8366ZM178.889 42.734H189.473V41.734H178.889V42.734ZM189.973 42.234V37.509H188.973V42.234H189.973ZM189.973 37.509C189.973 34.9273 189.659 32.9548 188.968 31.6659L188.087 32.1381C188.657 33.2012 188.973 34.9667 188.973 37.509H189.973ZM188.975 31.6784C188.271 30.2705 186.85 29.638 184.937 29.638V30.638C186.635 30.638 187.608 31.1815 188.081 32.1256L188.975 31.6784ZM245.367 37.194L244.985 36.8707L244.985 36.8714L245.367 37.194ZM237.87 41.289L237.984 41.7758L237.989 41.7744L237.87 41.289ZM222.561 42.486V41.986H222.061V42.486H222.561ZM222.813 57.732L222.459 58.0856L222.479 58.1051L222.5 58.1224L222.813 57.732ZM224.073 58.173L224.175 57.6836L224.171 57.6827L224.073 58.173ZM226.782 58.74H227.282V58.3338L226.884 58.2506L226.782 58.74ZM226.782 60V60.5H227.282V60H226.782ZM205.866 60H205.366V60.5H205.866V60ZM205.866 58.74L205.76 58.2513L205.366 58.3366V58.74H205.866ZM208.197 58.236L208.098 57.7457L208.091 57.7473L208.197 58.236ZM209.394 57.795L209.081 57.4046L209.06 57.4219L209.04 57.4414L209.394 57.795ZM209.394 18.105L209.04 18.4586L209.06 18.4781L209.081 18.4954L209.394 18.105ZM208.197 17.664L208.091 18.1528L208.098 18.1543L208.197 17.664ZM205.866 17.16H205.366V17.5634L205.76 17.6487L205.866 17.16ZM205.866 15.9V15.4H205.366V15.9H205.866ZM237.87 17.16L237.75 17.6455L237.755 17.6468L237.87 17.16ZM245.367 21.255L244.981 21.5735L244.989 21.5825L245.367 21.255ZM222.561 40.596H222.061V41.096H222.561V40.596ZM230.562 39.462L230.328 39.0201L230.322 39.0231L230.562 39.462ZM233.649 35.871L233.182 35.6915L233.649 35.871ZM233.649 22.515L233.182 22.6945L233.649 22.515ZM230.562 18.924L230.322 19.363L230.328 19.3659L230.562 18.924ZM222.561 17.79V17.29H222.061V17.79H222.561ZM247.324 29.193C247.324 32.5175 246.524 35.0559 244.985 36.8707L245.748 37.5173C247.485 35.4681 248.324 32.6725 248.324 29.193H247.324ZM244.985 36.8714C243.48 38.6535 241.091 39.9787 237.75 40.8036L237.989 41.7744C241.452 40.9193 244.061 39.5145 245.749 37.5166L244.985 36.8714ZM237.755 40.8022C234.407 41.5877 229.893 41.986 224.199 41.986V42.986C229.928 42.986 234.528 42.5863 237.984 41.7758L237.755 40.8022ZM224.199 41.986H222.561V42.986H224.199V41.986ZM222.061 42.486V56.787H223.061V42.486H222.061ZM222.061 56.787C222.061 57.2714 222.141 57.7673 222.459 58.0856L223.166 57.3784C223.148 57.3607 223.061 57.2266 223.061 56.787H222.061ZM222.5 58.1224C222.669 58.2573 222.887 58.3586 223.12 58.4402C223.359 58.5239 223.646 58.5975 223.974 58.6633L224.171 57.6827C223.869 57.6225 223.631 57.5596 223.45 57.4963C223.263 57.4309 223.166 57.3747 223.125 57.3416L222.5 58.1224ZM223.97 58.6624L226.679 59.2294L226.884 58.2506L224.175 57.6836L223.97 58.6624ZM226.282 58.74V60H227.282V58.74H226.282ZM226.782 59.5H205.866V60.5H226.782V59.5ZM206.366 60V58.74H205.366V60H206.366ZM205.971 59.2287L208.302 58.7247L208.091 57.7473L205.76 58.2513L205.971 59.2287ZM208.295 58.7263C208.624 58.6605 208.908 58.5862 209.141 58.5004C209.363 58.4186 209.586 58.3094 209.747 58.1486L209.04 57.4414C209.04 57.4411 209.025 57.4556 208.981 57.48C208.939 57.5037 208.878 57.5316 208.795 57.5621C208.629 57.6233 208.399 57.6855 208.098 57.7457L208.295 58.7263ZM209.706 58.1854C210.098 57.872 210.209 57.3585 210.209 56.85H209.209C209.209 57.2655 209.109 57.382 209.081 57.4046L209.706 58.1854ZM210.209 56.85V19.05H209.209V56.85H210.209ZM210.209 19.05C210.209 18.5415 210.098 18.028 209.706 17.7146L209.081 18.4954C209.109 18.518 209.209 18.6345 209.209 19.05H210.209ZM209.747 17.7514C209.586 17.5906 209.363 17.4814 209.141 17.3996C208.908 17.3138 208.624 17.2395 208.295 17.1737L208.098 18.1543C208.399 18.2145 208.629 18.2767 208.795 18.3379C208.878 18.3683 208.939 18.3963 208.981 18.42C209.025 18.4444 209.04 18.4589 209.04 18.4586L209.747 17.7514ZM208.302 17.1753L205.971 16.6713L205.76 17.6487L208.091 18.1527L208.302 17.1753ZM206.366 17.16V15.9H205.366V17.16H206.366ZM205.866 16.4H224.199V15.4H205.866V16.4ZM224.199 16.4C229.892 16.4 234.404 16.8192 237.75 17.6454L237.989 16.6746C234.531 15.8208 229.929 15.4 224.199 15.4V16.4ZM237.755 17.6468C241.092 18.4295 243.477 19.7533 244.981 21.5734L245.752 20.9366C244.064 18.8927 241.451 17.4865 237.984 16.6732L237.755 17.6468ZM244.989 21.5825C246.523 23.3533 247.324 25.8678 247.324 29.193H248.324C248.324 25.7142 247.486 22.9367 245.744 20.9275L244.989 21.5825ZM222.561 41.096H224.766V40.096H222.561V41.096ZM224.766 41.096C227.284 41.096 229.311 40.7135 230.801 39.9009L230.322 39.0231C229.04 39.7225 227.203 40.096 224.766 40.096V41.096ZM230.795 39.9039C232.34 39.0864 233.446 37.7907 234.115 36.0505L233.182 35.6915C232.591 37.2273 231.639 38.3256 230.328 39.0201L230.795 39.9039ZM234.115 36.0505C234.776 34.3312 235.094 32.0358 235.094 29.193H234.094C234.094 31.9782 233.781 34.1348 233.182 35.6915L234.115 36.0505ZM235.094 29.193C235.094 26.3502 234.776 24.0548 234.115 22.3355L233.182 22.6945C233.781 24.2512 234.094 26.4078 234.094 29.193H235.094ZM234.115 22.3355C233.446 20.5953 232.34 19.2996 230.795 18.4821L230.328 19.3659C231.639 20.0604 232.591 21.1587 233.182 22.6945L234.115 22.3355ZM230.801 18.4851C229.311 17.6725 227.284 17.29 224.766 17.29V18.29C227.203 18.29 229.04 18.6635 230.322 19.3629L230.801 18.4851ZM224.766 17.29H222.561V18.29H224.766V17.29ZM222.061 17.79V40.596H223.061V17.79H222.061ZM279.716 32.217L279.363 32.5706L279.382 32.5901L279.404 32.6074L279.716 32.217ZM278.519 31.776L278.408 32.2636L278.421 32.2663L278.519 31.776ZM276.314 31.272H275.814V31.6706L276.203 31.7594L276.314 31.272ZM276.314 30.138L276.253 29.6418L275.814 29.6962V30.138H276.314ZM291.56 28.248V27.748H291.529L291.499 27.7518L291.56 28.248ZM292.631 28.248H293.131V27.748H292.631V28.248ZM292.883 57.921L292.53 58.2746L292.549 58.2941L292.571 58.3114L292.883 57.921ZM294.143 58.362L294.255 57.8744L294.241 57.8717L294.143 58.362ZM296.348 58.866H296.848V58.4674L296.46 58.3786L296.348 58.866ZM296.348 60V60.5H296.848V60H296.348ZM280.913 59.244L280.546 59.5831L280.559 59.5978L280.574 59.6114L280.913 59.244ZM280.157 56.031H280.657V54.9406L279.831 55.6521L280.157 56.031ZM258.359 58.299L258.01 58.657L258.359 58.299ZM255.524 32.217L255.171 32.5706L255.19 32.5901L255.212 32.6074L255.524 32.217ZM254.327 31.776L254.216 32.2636L254.229 32.2663L254.327 31.776ZM252.122 31.272H251.622V31.6706L252.011 31.7594L252.122 31.272ZM252.122 30.138L252.061 29.6418L251.622 29.6962V30.138H252.122ZM267.368 28.248V27.748H267.337L267.307 27.7518L267.368 28.248ZM268.439 28.248H268.939V27.748H268.439V28.248ZM269.321 56.094L268.919 56.3906L268.924 56.3973L268.929 56.4038L269.321 56.094ZM280.031 54.141L280.348 54.5277L280.531 54.3777V54.141H280.031ZM280.531 33.162C280.531 32.6535 280.42 32.14 280.029 31.8266L279.404 32.6074C279.432 32.63 279.531 32.7465 279.531 33.162H280.531ZM280.07 31.8634C279.909 31.7026 279.686 31.5934 279.464 31.5116C279.231 31.4258 278.946 31.3515 278.617 31.2857L278.421 32.2663C278.722 32.3265 278.952 32.3887 279.118 32.4499C279.201 32.4804 279.261 32.5083 279.304 32.532C279.348 32.5564 279.363 32.5709 279.363 32.5706L280.07 31.8634ZM278.631 31.2886L276.426 30.7846L276.203 31.7594L278.408 32.2634L278.631 31.2886ZM276.814 31.272V30.138H275.814V31.272H276.814ZM276.376 30.6342L291.622 28.7442L291.499 27.7518L276.253 29.6418L276.376 30.6342ZM291.56 28.748H292.631V27.748H291.56V28.748ZM292.131 28.248V56.976H293.131V28.248H292.131ZM292.131 56.976C292.131 57.4604 292.212 57.9563 292.53 58.2746L293.237 57.5674C293.219 57.5497 293.131 57.4156 293.131 56.976H292.131ZM292.571 58.3114C292.74 58.4463 292.957 58.5476 293.191 58.6292C293.43 58.7129 293.717 58.7865 294.045 58.8523L294.241 57.8717C293.94 57.8115 293.702 57.7486 293.521 57.6853C293.334 57.6199 293.237 57.5637 293.196 57.5306L292.571 58.3114ZM294.032 58.8494L296.237 59.3534L296.46 58.3786L294.255 57.8746L294.032 58.8494ZM295.848 58.866V60H296.848V58.866H295.848ZM296.348 59.5H283.559V60.5H296.348V59.5ZM283.559 59.5C282.391 59.5 281.663 59.2551 281.252 58.8766L280.574 59.6114C281.256 60.2409 282.291 60.5 283.559 60.5V59.5ZM281.281 58.9049C280.897 58.4895 280.657 57.7964 280.657 56.724H279.657C279.657 57.9196 279.921 58.9065 280.546 59.5831L281.281 58.9049ZM280.657 56.724V56.031H279.657V56.724H280.657ZM279.831 55.6521C278.37 56.9105 276.509 57.9974 274.239 58.9058L274.61 59.8342C276.959 58.8946 278.921 57.7555 280.484 56.4099L279.831 55.6521ZM274.239 58.9058C271.995 59.8032 269.497 60.256 266.738 60.256V61.256C269.608 61.256 272.234 60.7848 274.61 59.8342L274.239 58.9058ZM266.738 60.256C262.881 60.256 260.249 59.4435 258.708 57.941L258.01 58.657C259.829 60.4305 262.784 61.256 266.738 61.256V60.256ZM258.708 57.941C257.158 56.4293 256.339 54.1237 256.339 50.928H255.339C255.339 54.2843 256.201 56.8927 258.01 58.657L258.708 57.941ZM256.339 50.928V33.162H255.339V50.928H256.339ZM256.339 33.162C256.339 32.6535 256.228 32.14 255.837 31.8266L255.212 32.6074C255.24 32.63 255.339 32.7465 255.339 33.162H256.339ZM255.878 31.8634C255.717 31.7026 255.494 31.5934 255.272 31.5116C255.039 31.4258 254.754 31.3515 254.425 31.2857L254.229 32.2663C254.53 32.3265 254.76 32.3887 254.926 32.4499C255.009 32.4804 255.069 32.5083 255.112 32.532C255.156 32.5564 255.171 32.5709 255.171 32.5706L255.878 31.8634ZM254.439 31.2886L252.234 30.7846L252.011 31.7594L254.216 32.2634L254.439 31.2886ZM252.622 31.272V30.138H251.622V31.272H252.622ZM252.184 30.6342L267.43 28.7442L267.307 27.7518L252.061 29.6418L252.184 30.6342ZM267.368 28.748H268.439V27.748H267.368V28.748ZM267.939 28.248V52.062H268.939V28.248H267.939ZM267.939 52.062C267.939 53.976 268.232 55.458 268.919 56.3906L269.724 55.7974C269.235 55.134 268.939 53.928 268.939 52.062H267.939ZM268.929 56.4038C269.688 57.3652 270.893 57.791 272.408 57.791V56.791C271.068 56.791 270.215 56.4188 269.714 55.7842L268.929 56.4038ZM272.408 57.791C275.076 57.791 277.725 56.6777 280.348 54.5277L279.714 53.7543C277.213 55.8043 274.781 56.791 272.408 56.791V57.791ZM280.531 54.141V33.162H279.531V54.141H280.531ZM299.378 58.866L299.267 58.3786L298.878 58.4674V58.866H299.378ZM301.583 58.362L301.485 57.8715L301.472 57.8746L301.583 58.362ZM302.78 57.921L302.468 57.5306L302.446 57.5479L302.427 57.5674L302.78 57.921ZM302.78 17.979L302.427 18.3326L302.446 18.3521L302.468 18.3694L302.78 17.979ZM301.583 17.538L301.472 18.0256L301.485 18.0283L301.583 17.538ZM299.378 17.034H298.878V17.4326L299.267 17.5214L299.378 17.034ZM299.378 15.9L299.316 15.4039L298.878 15.4586V15.9H299.378ZM314.498 14.01V13.51H314.467L314.436 13.5139L314.498 14.01ZM315.695 14.01H316.195V13.51H315.695V14.01ZM315.947 57.921L315.594 58.2746L315.613 58.2941L315.635 58.3114L315.947 57.921ZM317.207 58.362L317.319 57.8744L317.305 57.8717L317.207 58.362ZM319.412 58.866H319.912V58.4674L319.524 58.3786L319.412 58.866ZM319.412 60V60.5H319.912V60H319.412ZM299.378 60H298.878V60.5H299.378V60ZM299.49 59.3534L301.695 58.8494L301.472 57.8746L299.267 58.3786L299.49 59.3534ZM301.681 58.8523C302.01 58.7865 302.295 58.7122 302.528 58.6264C302.75 58.5446 302.973 58.4354 303.134 58.2746L302.427 57.5674C302.427 57.5671 302.412 57.5816 302.368 57.606C302.325 57.6297 302.265 57.6576 302.182 57.6881C302.016 57.7493 301.786 57.8115 301.485 57.8717L301.681 58.8523ZM303.093 58.3114C303.484 57.998 303.595 57.4845 303.595 56.976H302.595C302.595 57.3915 302.496 57.508 302.468 57.5306L303.093 58.3114ZM303.595 56.976V18.924H302.595V56.976H303.595ZM303.595 18.924C303.595 18.4155 303.484 17.902 303.093 17.5886L302.468 18.3694C302.496 18.392 302.595 18.5085 302.595 18.924H303.595ZM303.134 17.6254C302.973 17.4646 302.75 17.3554 302.528 17.2736C302.295 17.1878 302.01 17.1135 301.681 17.0477L301.485 18.0283C301.786 18.0885 302.016 18.1507 302.182 18.2119C302.265 18.2424 302.325 18.2703 302.368 18.294C302.412 18.3184 302.427 18.3329 302.427 18.3326L303.134 17.6254ZM301.695 17.0506L299.49 16.5466L299.267 17.5214L301.472 18.0254L301.695 17.0506ZM299.878 17.034V15.9H298.878V17.034H299.878ZM299.44 16.3961L314.56 14.5061L314.436 13.5139L299.316 15.4039L299.44 16.3961ZM314.498 14.51H315.695V13.51H314.498V14.51ZM315.195 14.01V56.976H316.195V14.01H315.195ZM315.195 56.976C315.195 57.4604 315.275 57.9563 315.594 58.2746L316.301 57.5674C316.283 57.5497 316.195 57.4156 316.195 56.976H315.195ZM315.635 58.3114C315.803 58.4463 316.021 58.5476 316.255 58.6292C316.494 58.7129 316.78 58.7865 317.109 58.8523L317.305 57.8717C317.004 57.8115 316.766 57.7486 316.585 57.6853C316.398 57.6199 316.301 57.5637 316.26 57.5306L315.635 58.3114ZM317.096 58.8494L319.301 59.3534L319.524 58.3786L317.319 57.8746L317.096 58.8494ZM318.912 58.866V60H319.912V58.866H318.912ZM319.412 59.5H299.378V60.5H319.412V59.5ZM299.878 60V58.866H298.878V60H299.878ZM342.168 58.362L341.908 57.9348L341.9 57.9402L342.168 58.362ZM340.467 51.117L340.258 51.571L340.467 51.117ZM335.238 49.038L335.411 48.5688L335.408 48.5677L335.238 49.038ZM326.544 44.502L326.205 44.8687L326.21 44.8732L326.544 44.502ZM327.49 30.957L327.76 31.3776L327.765 31.3742L327.49 30.957ZM345.382 29.382L345.277 29.871L345.285 29.8726L345.382 29.382ZM350.862 31.02L351.36 31.0698L351.395 30.7221L351.08 30.5699L350.862 31.02ZM350.107 38.58V39.08H350.559L350.604 38.6298L350.107 38.58ZM349.035 38.58L348.572 38.7669L348.698 39.08H349.035V38.58ZM344.94 32.217L344.602 32.5848L344.607 32.5896L344.94 32.217ZM333.538 30.831L333.754 31.2818L333.761 31.2783L333.768 31.2746L333.538 30.831ZM332.655 35.997L332.262 36.3059L332.269 36.3143L332.276 36.3224L332.655 35.997ZM334.923 37.635L334.7 38.0823L334.707 38.0858L334.923 37.635ZM340.09 39.84L339.902 40.3037L339.903 40.3038L340.09 39.84ZM347.901 43.431L348.15 42.9969V42.9969L347.901 43.431ZM351.807 46.896L351.387 47.1671L351.807 46.896ZM349.414 58.677L349.664 59.1097L349.666 59.1083L349.414 58.677ZM330.513 60L330.602 59.5078L330.596 59.5068L330.513 60ZM324.276 58.362L323.779 58.3108L323.742 58.6684L324.07 58.8172L324.276 58.362ZM325.159 49.794V49.294H324.707L324.661 49.7428L325.159 49.794ZM326.229 49.794L326.717 49.6829L326.628 49.294H326.229V49.794ZM330.262 57.039L329.953 57.4328L329.959 57.4369L330.262 57.039ZM337.822 59.744C339.825 59.744 341.391 59.4494 342.437 58.7838L341.9 57.9402C341.098 58.4506 339.766 58.744 337.822 58.744V59.744ZM342.428 58.7891C343.588 58.0832 344.117 56.86 344.117 55.275H343.117C343.117 56.63 342.681 57.4648 341.909 57.9349L342.428 58.7891ZM344.117 55.275C344.117 54.1824 343.843 53.2446 343.252 52.5057L342.471 53.1303C342.888 53.6514 343.117 54.3516 343.117 55.275H344.117ZM343.252 52.5057C342.682 51.7926 341.808 51.1849 340.677 50.663L340.258 51.571C341.311 52.0571 342.033 52.5834 342.471 53.1303L343.252 52.5057ZM340.677 50.663C339.566 50.1502 337.807 49.4515 335.411 48.5688L335.066 49.5072C337.458 50.3885 339.185 51.0758 340.258 51.571L340.677 50.663ZM335.408 48.5677C331.352 47.104 328.528 45.6184 326.879 44.1308L326.21 44.8732C328.005 46.4936 330.977 48.0321 335.069 49.5083L335.408 48.5677ZM326.884 44.1353C325.283 42.651 324.461 40.6102 324.461 37.95H323.461C323.461 40.8338 324.362 43.161 326.205 44.8687L326.884 44.1353ZM324.461 37.95C324.461 34.9447 325.571 32.7846 327.76 31.3776L327.219 30.5364C324.704 32.1534 323.461 34.6553 323.461 37.95H324.461ZM327.765 31.3742C329.996 29.9001 333.449 29.126 338.199 29.126V28.126C333.374 28.126 329.687 28.9059 327.214 30.5398L327.765 31.3742ZM338.199 29.126C340.601 29.126 342.96 29.3744 345.277 29.8709L345.486 28.8931C343.099 28.3816 340.67 28.126 338.199 28.126V29.126ZM345.285 29.8726C347.619 30.331 349.398 30.8669 350.645 31.4701L351.08 30.5699C349.723 29.9131 347.848 29.357 345.478 28.8914L345.285 29.8726ZM350.365 30.9702L349.609 38.5302L350.604 38.6298L351.36 31.0698L350.365 30.9702ZM350.107 38.08H349.035V39.08H350.107V38.08ZM349.499 38.3931C348.348 35.5357 346.946 33.3402 345.274 31.8444L344.607 32.5896C346.127 33.9498 347.455 35.9963 348.572 38.7669L349.499 38.3931ZM345.279 31.8492C343.56 30.2657 341.11 29.512 338.01 29.512V30.512C340.959 30.512 343.129 31.2283 344.602 32.5848L345.279 31.8492ZM338.01 29.512C336.043 29.512 334.46 29.788 333.307 30.3874L333.768 31.2746C334.716 30.782 336.114 30.512 338.01 30.512V29.512ZM333.321 30.3802C332.71 30.6734 332.236 31.1048 331.919 31.6749C331.605 32.2398 331.462 32.9114 331.462 33.666H332.462C332.462 33.0346 332.582 32.5407 332.793 32.1606C333.002 31.7857 333.315 31.4926 333.754 31.2818L333.321 30.3802ZM331.462 33.666C331.462 34.711 331.713 35.607 332.262 36.3059L333.049 35.6881C332.674 35.211 332.462 34.553 332.462 33.666H331.462ZM332.276 36.3224C332.838 36.9785 333.657 37.5608 334.7 38.0822L335.147 37.1878C334.174 36.7012 333.481 36.1915 333.035 35.6716L332.276 36.3224ZM334.707 38.0858C335.773 38.5972 337.507 39.3373 339.902 40.3037L340.277 39.3763C337.884 38.4107 336.174 37.6808 335.14 37.1842L334.707 38.0858ZM339.903 40.3038C343.34 41.6871 345.919 42.8741 347.653 43.8651L348.15 42.9969C346.356 41.9719 343.727 40.7649 340.276 39.3762L339.903 40.3038ZM347.653 43.8651C349.369 44.8453 350.602 45.9501 351.387 47.1671L352.228 46.6249C351.333 45.2379 349.962 44.0327 348.15 42.9969L347.653 43.8651ZM351.387 47.1671C352.163 48.3688 352.568 49.906 352.568 51.81H353.568C353.568 49.766 353.132 48.0272 352.228 46.6249L351.387 47.1671ZM352.568 51.81C352.568 54.8072 351.423 56.9192 349.161 58.2457L349.666 59.1083C352.276 57.5788 353.568 55.1128 353.568 51.81H352.568ZM349.163 58.2443C346.883 59.5645 343.377 60.256 338.578 60.256V61.256C343.438 61.256 347.156 60.5615 349.664 59.1097L349.163 58.2443ZM338.578 60.256C336.048 60.256 333.39 60.0072 330.602 59.5078L330.425 60.4922C333.265 61.0008 335.983 61.256 338.578 61.256V60.256ZM330.596 59.5068C327.837 59.047 325.809 58.5095 324.483 57.9068L324.07 58.8172C325.516 59.4745 327.646 60.029 330.431 60.4932L330.596 59.5068ZM324.774 58.4132L325.656 49.8452L324.661 49.7428L323.779 58.3108L324.774 58.4132ZM325.159 50.294H326.229V49.294H325.159V50.294ZM325.742 49.9051C326.514 53.2922 327.901 55.8269 329.953 57.4328L330.57 56.6452C328.758 55.2271 327.457 52.9318 326.717 49.6829L325.742 49.9051ZM329.959 57.4369C332 58.9897 334.635 59.744 337.822 59.744V58.744C334.792 58.744 332.387 58.0283 330.564 56.6411L329.959 57.4369ZM372.072 43.872V43.372H371.568L371.572 43.8765L372.072 43.872ZM374.277 54.519L373.846 54.7719L373.849 54.7773L374.277 54.519ZM387.696 57.291L387.519 56.8233L387.515 56.825L387.696 57.291ZM392.484 54.771L392.897 54.4887L392.618 54.0809L392.207 54.355L392.484 54.771ZM393.303 55.968L393.62 56.3552L393.975 56.0646L393.716 55.6857L393.303 55.968ZM364.071 56.598L363.748 56.9794L363.753 56.9837L364.071 56.598ZM364.197 32.658L364.507 33.0503L364.197 32.658ZM387.318 30.264L387.526 29.8091L387.318 30.264ZM392.61 34.674L392.184 34.9356L392.191 34.9468L392.61 34.674ZM394.059 43.872V44.372H394.462L394.548 43.9782L394.059 43.872ZM372.072 42.234L371.572 42.229L371.567 42.734H372.072V42.234ZM382.656 42.234V42.734H383.156V42.234H382.656ZM381.711 31.902L381.264 32.1257L381.271 32.1381L381.711 31.902ZM371.572 43.8765C371.615 48.5752 372.354 52.2264 373.846 54.7719L374.709 54.2661C373.345 51.9396 372.614 48.4928 372.572 43.8675L371.572 43.8765ZM373.849 54.7773C375.444 57.4199 378.38 58.673 382.467 58.673V57.673C378.574 57.673 376.051 56.4901 374.705 54.2607L373.849 54.7773ZM382.467 58.673C384.49 58.673 386.297 58.3718 387.878 57.757L387.515 56.825C386.072 57.3862 384.392 57.673 382.467 57.673V58.673ZM387.873 57.7586C389.468 57.1551 391.098 56.2962 392.762 55.187L392.207 54.355C390.595 55.4298 389.032 56.2509 387.519 56.8234L387.873 57.7586ZM392.072 55.0533L392.891 56.2503L393.716 55.6857L392.897 54.4887L392.072 55.0533ZM392.987 55.5808C389.192 58.6818 384.148 60.256 377.805 60.256V61.256C384.314 61.256 389.602 59.6382 393.62 56.3552L392.987 55.5808ZM377.805 60.256C372.087 60.256 367.634 58.8891 364.39 56.2123L363.753 56.9837C367.229 59.8509 371.932 61.256 377.805 61.256V60.256ZM364.395 56.2167C361.215 53.5196 359.594 49.5798 359.594 44.313H358.594C358.594 49.7982 360.292 54.0484 363.748 56.9793L364.395 56.2167ZM359.594 44.313C359.594 39.3544 361.247 35.6266 364.507 33.0503L363.887 32.2657C360.344 35.0654 358.594 39.1076 358.594 44.313H359.594ZM364.507 33.0503C367.791 30.4559 372.433 29.126 378.498 29.126V28.126C372.299 28.126 367.408 29.4841 363.887 32.2657L364.507 33.0503ZM378.498 29.126C381.935 29.126 384.799 29.6646 387.111 30.7189L387.526 29.8091C385.049 28.6794 382.034 28.126 378.498 28.126V29.126ZM387.111 30.7189C389.434 31.7786 391.112 33.1889 392.184 34.9355L393.036 34.4125C391.84 32.4631 389.991 30.9334 387.526 29.8091L387.111 30.7189ZM392.191 34.9468C393.313 36.6689 393.874 38.5895 393.874 40.722H394.874C394.874 38.4025 394.26 36.2911 393.029 34.4012L392.191 34.9468ZM393.874 40.722C393.874 41.8254 393.772 42.8393 393.571 43.7658L394.548 43.9782C394.767 42.9727 394.874 41.8866 394.874 40.722H393.874ZM394.059 43.372H372.072V44.372H394.059V43.372ZM378.12 29.638C376.896 29.638 375.829 29.8943 374.945 30.4363C374.058 30.9802 373.392 31.7903 372.937 32.8366L373.854 33.2354C374.239 32.3497 374.78 31.7108 375.468 31.2887C376.159 30.8647 377.035 30.638 378.12 30.638V29.638ZM372.937 32.8366C372.055 34.8649 371.615 38.0153 371.572 42.229L372.572 42.239C372.614 38.0527 373.056 35.071 373.854 33.2354L372.937 32.8366ZM372.072 42.734H382.656V41.734H372.072V42.734ZM383.156 42.234V37.509H382.156V42.234H383.156ZM383.156 37.509C383.156 34.9273 382.843 32.9548 382.152 31.6659L381.271 32.1381C381.84 33.2012 382.156 34.9667 382.156 37.509H383.156ZM382.159 31.6784C381.455 30.2705 380.034 29.638 378.12 29.638V30.638C379.819 30.638 380.792 31.1815 381.264 32.1256L382.159 31.6784Z" fill="#48C1E8"/>
</g>
<defs>
<filter id="filter0_i_1_24" x="0" y="0" width="394.374" height="65.134" filterUnits="userSpaceOnUse" color-interpolation-filters="sRGB">
<feFlood flood-opacity="0" result="BackgroundImageFix"/>
<feBlend mode="normal" in="SourceGraphic" in2="BackgroundImageFix" result="shape"/>
<feColorMatrix in="SourceAlpha" type="matrix" values="0 0 0 0 0 0 0 0 0 0 0 0 0 0 0 0 0 0 127 0" result="hardAlpha"/>
<feOffset dy="6"/>
<feGaussianBlur stdDeviation="2"/>
<feComposite in2="hardAlpha" operator="arithmetic" k2="-1" k3="1"/>
<feColorMatrix type="matrix" values="0 0 0 0 0 0 0 0 0 0.82 0 0 0 0 1 0 0 0 0.25 0"/>
<feBlend mode="normal" in2="shape" result="effect1_innerShadow_1_24"/>
</filter>
<filter id="filter1_i_1_24" x="3.638" y="14.01" width="390.736" height="51.124" filterUnits="userSpaceOnUse" color-interpolation-filters="sRGB">
<feFlood flood-opacity="0" result="BackgroundImageFix"/>
<feBlend mode="normal" in="SourceGraphic" in2="BackgroundImageFix" result="shape"/>
<feColorMatrix in="SourceAlpha" type="matrix" values="0 0 0 0 0 0 0 0 0 0 0 0 0 0 0 0 0 0 127 0" result="hardAlpha"/>
<feOffset dy="4"/>
<feGaussianBlur stdDeviation="2"/>
<feComposite in2="hardAlpha" operator="arithmetic" k2="-1" k3="1"/>
<feColorMatrix type="matrix" values="0 0 0 0 0 0 0 0 0 0 0 0 0 0 0 0 0 0 0.25 0"/>
<feBlend mode="normal" in2="shape" result="effect1_innerShadow_1_24"/>
</filter>
</defs>
</svg>
